<svg xmlns="http://www.w3.org/2000/svg" fill="yellow" width="489.3" height="706.7" version="1.0" viewBox="0 0 367 530">
  <path d="m223 29-1 8-1 6-7-4c-16-10-30-12-40-7-5 2-11 8-12 12h-3c-8-7-20-9-29-4-10 5-19 15-25 29-7 14-8 24-3 33 2 3 7 9 9 9l2 2c2 1 2 1 0 4-11 15-7 30 10 44 12 9 27 15 38 15h5v128h-3c-2 0-2-1-5-13-2-16-6-30-10-39l-3-7 6-11c8-17 10-26 4-36-2-4-10-11-14-13-2-1-2-1-5 2-6 7-9 15-10 22a34 34 0 0 0 2 13l-7-3c-12-6-30-23-36-34l-2-3 7-7 9-10c7-10-5-17-14-7l-4 4-2-5c-1-6-4-8-9-8-7 0-9 7-5 15l3 5-3-1-7-1c-10 0-12 12-3 18 3 1 5 2 12 2l11-1c2-1 3 0 5 4l14 15 10 11h-8c-8 1-20 4-26 7l-4 2-7-12c-11-15-17-20-23-18-9 2-9 14 0 24l6 5h-8c-5 1-9 1-10 3-6 3-8 12-3 17 4 3 10 3 20-1l9-4-3 4c-5 5-8 13-7 18 2 7 10 11 17 7 8-3 12-12 13-29v-11l5-3c7-3 20-5 29-5 12 1 15 2 23 11 6 6 8 9 12 17 6 14 6 15 0 12-9-4-19-7-24-7-9 0-20 8-25 17-1 3-1 3 1 6l10 6c7 3 8 4 15 4 7-1 8-1 14-4l12-8 5-2 6 29c0 3 0 3-6 3l-7 1 2 9c8 22 11 49 8 62-3 9-7 15-21 29l-17 20a44 44 0 0 0 17 64l7 4h37c40 0 40 0 51-7a43 43 0 0 0 13-56c-2-5-6-10-17-21-18-20-23-27-25-40-1-10 3-35 8-53 4-13 4-12-4-12l-6-1 1-14c1-12 1-14 3-16 4-4 10-6 16-7 11-1 20 5 25 16 3 6 2 16-1 22-7 10-20 11-25 2-2-4-1-9 3-12 3-3 5-3 7 0s2 4-2 5c-2 1-3 3 0 4 4 1 9-5 7-10-5-9-18-5-20 6-1 6 3 12 8 15 5 2 10 3 15 0 19-8 18-38-1-49-5-2-6-3-14-3-7 0-9 1-13 3l-6 3v-6c1-7 5-18 12-24 4-5 13-10 19-12h3l-1 3-2 5c0 4 2 9 4 9 4 2 12 1 17-2l5-2-2 6c-2 4-3 8-3 13 0 8 0 11 4 15 6 7 13 1 22-16l5-10 1 8c1 10 4 18 7 20l7 2c3 0 5-1 8-3l4-4v-20l5 5c5 5 10 7 14 5 3-2 6-8 6-12 0-6-2-10-9-16l-6-5 5-1c11-2 20-10 20-18 0-5-3-7-13-7h-9l7-7c9-10 11-16 8-23-5-8-16-6-29 6l-6 5v-6c0-10-4-23-9-29-5-5-12-3-17 4-3 6-6 16-6 21v4l-2-2c-3-5-11-12-15-14-10-3-16 1-17 12 0 6 1 10 7 17l3 4h-6c-12 0-18 4-19 13 0 7 1 12 5 15l2 2-4 1c-7 3-15 9-19 14-3 4-3 4-3 2l6-42c3-16 2-17-5-9-6 6-10 14-13 24-3 8-11 55-12 70-2 24-2 21-5 21h-3V174l4-2c3-2 8-9 9-11 1-1 2-1 5 1 16 11 32 6 47-15 9-14 13-30 10-40-1-5-8-12-12-14l-3-2 3-4c2-2 3-6 4-9l1-5 7 1c6 0 6 0 10-4 3-3 4-5 4-7 0-3-3-9-5-10-2 0-2-1-1-2 2-4 1-10-2-16-6-11-15-12-23-3l-2 3v-4c1-5-1-6-3-2zm22 5c6 6 7 14 2 17-3 3-3 4 1 5 8 2 9 10 2 13-3 2-4 2-7 1-14-5-20-29-9-38 4-3 7-2 11 2zm-47 1c14 5 25 13 28 21 0 3 3 7 5 10 3 4 4 6 3 8-1 5-4 10-6 13-3 3-3 3-7 2a85 85 0 0 0-38 3l7-12c8-10 9-13 6-13l-9 11-7 12-1-7c-1-10-4-19-10-28-3-5-4-7-3-9 0-3 7-10 11-12s14-1 21 1zm-47 8c12 6 24 26 24 41v5h-3c-3 0-5-1-8-4l-6-9c-2-5-4-6-6-4l9 15 3 4-2 2c-2 2-3 1-15-1l-14-2c-2 2 2 4 13 6l12 2v6c-1 5-1 5-5 7l-14 2c-9 0-12 0-18-2-15-4-21-15-17-31 4-13 18-32 27-37 6-3 14-3 20 0zm74 51c7 2 12 6 15 10 5 9 2 23-8 39-15 24-32 28-48 10-8-8-14-22-14-31 0-3 0-3 5-3s5 0 8 4l5 8c2 3 5 4 5 2l-6-12-4-4 2-3 3-3 9 1 12 3c3 0 3 0 3-2 0-1-1-2-10-3-13-3-14-3-14-6l-1-5c-1-3-1-3 3-4 10-4 26-4 35-1zm-45 2c3 2 5 7 4 11 0 4-5 8-10 8-8 0-12-4-12-11 0-5 2-9 5-10s10 0 13 2zm-20 19-11 11c-8 9-10 12-7 12l11-10 11-11 3 8c1 10 4 18 9 26l5 6-3 5c-2 2-4 6-7 7-5 4-17 4-26 0s-17-9-23-15c-13-11-15-25-5-35 3-4 3-4 7-3a89 89 0 0 0 35-3c2 0 2 0 1 2zm130 35c4 5 7 14 8 23 0 11 0 12-5 11l-11-1-8-1v-8c0-8 1-10 3-16 3-6 7-10 9-10l4 2zm-216 5c2 3 4 12 4 16v4l-2-3c-8-9-11-16-8-18 1-2 5-1 6 1zm23 4c0 3-4 9-10 15l-4 3v-4l1-7c3-7 13-12 13-7zm157 7c5 2 9 6 13 14l2 5-5 5-6 6-3-2c-6-4-11-9-13-13-3-5-3-12 0-15 3-4 5-4 12 0zm78 6c3 2 2 8-1 14-3 4-15 15-18 15 0 0-2-1-2-3l-5-6c-4-4-3-4 5-13 10-9 17-11 21-7zm-266 1 8 5c5 4 4 5-6 5-11 0-17-4-14-10 1-3 7-3 12 0zm230 17c15 8 19 26 9 37-8 10-27 12-38 4-9-5-11-19-6-30 3-6 10-12 14-14 6-2 16 0 21 3zm-156 25c1 25 1 25-6 11-3-7-4-9-4-14 0-7 2-13 6-18 2-3 3-3 3-2l1 23zm8-20c8 10 9 18 1 35l-3 7-1-6-1-22c-1-19 0-20 4-14zm55 10-7 51c-2 15-2 18-4 22-3 4-7 17-7 23 0 2-1 3-3 3s-2 0-2-4c0-10 9-70 13-84 3-9 10-24 12-23l-2 12zm49-7c5 1 5 2 4 5l-1 8c-1 5-1 6-5 7l-11 2c-7 0-8 0-10-2-6-5-6-15 0-19 4-2 15-3 23-1zm-208 1 6 6c5 5 14 19 14 20-1 1-12-2-17-5-8-5-14-16-10-20 3-2 3-2 7-1zm292 6c6 2 5 5-1 11-5 5-9 7-17 7h-5l1-8v-9l15-2 7 1zm-78 22 3 5-6 3c-5 3-13 6-16 6-2 0-5-4-5-7 0-4 5-8 13-11 7-2 8-1 11 4zm-200 2c2 0 2 0-2 3-9 6-19 10-24 10s-7-1-7-5 3-7 6-8h27zm260 3c8 5 12 10 12 16 0 4-3 9-6 9s-11-7-17-14l-5-7 4-4c5-4 6-4 12 0zm-249 6c0 8-2 18-5 22-2 3-7 6-10 6l-4-2c-4-3-4-7-1-13 2-4 18-21 19-20l1 7zm206 1c6 0 5 1 0 13-3 7-7 14-10 16-5 6-8 5-10-3s1-18 8-27l2-3 4 2 6 2zm27 7c6 16 4 27-6 27l-4-2c-3-3-5-13-5-23v-8l5-1c6-2 7-1 10 7zm-175 13c8 1 18 6 16 7l-42 3h-2l3-3c3-5 11-9 16-9l9 2zm12 15c-12 9-22 10-34 4-6-3-8-5-3-5l15-1 20-2h7l-5 4zm53 26c0 3-1 4-2 4-2 0-1-5 1-12l1-6 1 5-1 9zm10 16c-4 13-6 28-7 42 0 16 1 23 7 32l4 6-15 19-53 70-2 2-5-2c-7-4-14-13-17-20-2-4-2-7-3-15 0-9 1-10 4-17 3-6 7-11 18-22 22-23 24-29 24-50a140 140 0 0 0-9-51c0-2 3-2 28-2h29l-3 8zm14 91 7 7-15 19-29 38-13 18h-13l-12-1c0-2 66-88 68-88l7 7zm20 24 2 3-6 10-21 27-13 18h-27l46-61 8-11 5 5 6 9zm6 15c1 11-4 24-12 32-6 6-17 11-23 11h-4l11-15a833 833 0 0 0 26-34l2 6z"/>
  <path d="M277 195c-12 6-13 23-2 31 9 6 22 2 26-7 3-8 2-15-3-20-5-6-14-8-21-4zm15 4c4 2 4 2 0 4-4 1-8 0-8-3-1-3 0-3 2-3l6 2zm-12 2c1 1 0 3-1 5l-2 4-3 3c-3 1-3 1-3-3s2-8 5-10c3-3 4-2 4 1zm18 6v9c-2 3-5 7-7 7s-2-5-1-7c2-2 3-5 3-8-1-1 1-3 4-3l1 2zm-10 1c3 3-1 8-5 6-3-2-2-7 2-7l3 1zm-6 10c3 1 5 5 4 7-1 1-7-1-10-4-3-2-3-2-1-4 2-1 2-1 6 1zM250 78c-1 1 0 3 2 3l1-2c-1-2-3-3-4-1zm2 11c-1 2 2 4 3 2 1-1 0-3-1-3l-2 1zm47 4c-1 1 0 3 2 3l1-2c0-2-2-3-3-1zm-9 5 2 2 1-2-1-2-2 2zm-33 1c-1 1 0 3 2 3 1 0 2-2 0-3h-2zm46 3c-1 2 0 3 2 3 1 0 2-3 0-3h-2zm-39 7 2 1 2-1-2-2-2 2zm25-1c-1 1 0 3 2 3l1-2c-1-2-3-3-3-1zm6 3 1 2c1 1 3 0 3-2 0-1-3-2-4 0zm45 0c-1 1 0 3 2 3l1-2c-1-2-3-3-3-1zm-66 2 1 2c1 1 3-1 3-2-1-2-4-1-4 0zm12 1c-2 1-1 3 1 3l2-2c0-2-2-2-3-1zm7 4c-1 2 2 4 3 2 1-1 1-3-1-3l-2 1zm41 3c-1 2 2 4 3 2 1-1 1-3-1-3l-2 1zm-31 3c-1 1 0 3 2 3l1-2c0-2-2-3-3-1zm11 3c-1 1 0 2 2 2l1-2c0-1-2-2-3 0zm11 1 2 1 1-1-1-2-2 2zM81 150c-1 2 0 3 2 3l2-2c0-2-3-3-4-1zm-25 10c-2 1-1 3 1 3l2-2c0-2-2-3-3-1zm-30 57c0 2 1 4 3 4s3-3 1-4c-2-2-3-2-4 0zm10 32-1 2c0 2 1 2 2 2 2 0 2-1 2-3 1-2-2-3-3-1z"/>
<!-- rgba(70,52,78,0.3)    -->
</svg>
