<?xml version="1.0" standalone="no"?>
<!DOCTYPE svg PUBLIC "-//W3C//DTD SVG 20010904//EN"
 "http://www.w3.org/TR/2001/REC-SVG-20010904/DTD/svg10.dtd">
<svg version="1.0" xmlns="http://www.w3.org/2000/svg"
 width="577.000000pt" height="568.000000pt" viewBox="0 0 577.000000 568.000000"
 preserveAspectRatio="xMidYMid meet">

<g transform="translate(0.000000,568.000000) scale(0.100000,-0.100000)"
fill="#000000" stroke="none">
<path d="M2350 4734 c-756 -90 -1472 -512 -1845 -1088 -127 -194 -201 -379
-244 -600 -81 -420 4 -785 256 -1099 60 -75 82 -84 36 -15 -50 75 -90 160
-126 268 -36 108 -43 134 -53 210 -3 25 -8 56 -10 70 -3 14 -5 79 -5 145 0 94
6 155 31 280 17 88 35 164 40 169 6 6 10 20 10 33 0 13 4 31 9 41 5 9 13 28
19 42 53 136 177 343 286 480 125 156 422 429 523 480 15 8 44 26 63 41 19 14
42 29 50 32 8 4 33 18 55 31 113 70 451 221 535 239 14 3 81 21 150 40 120 34
159 43 225 51 17 2 68 10 115 17 130 21 599 19 710 -3 47 -10 106 -20 131 -22
74 -9 367 -109 465 -160 125 -65 192 -103 233 -132 23 -16 18 -10 -13 18 -202
180 -515 333 -811 398 -231 50 -582 64 -835 34z"/>
<path d="M4154 4652 c3 -6 30 -22 59 -36 28 -15 70 -37 92 -51 22 -14 55 -32
73 -42 17 -9 32 -20 32 -25 0 -4 5 -8 11 -8 6 0 16 -6 23 -12 8 -7 24 -20 36
-28 53 -35 126 -97 184 -157 88 -89 106 -109 106 -119 0 -5 11 -18 25 -28 14
-10 25 -23 25 -28 0 -5 6 -16 13 -23 24 -28 33 -41 69 -100 52 -86 53 -99 23
-216 -14 -57 -37 -157 -51 -223 -13 -66 -26 -121 -27 -123 -2 -1 -38 -12 -80
-23 -123 -31 -225 -98 -348 -227 -110 -115 -198 -249 -349 -533 -143 -269
-248 -405 -445 -576 -339 -296 -887 -453 -1320 -379 -177 29 -374 106 -508
197 -92 62 -192 163 -250 251 -68 103 -80 125 -107 212 -70 223 -31 451 117
678 57 88 213 246 308 312 277 192 598 266 875 200 109 -26 242 -98 314 -171
154 -155 189 -343 98 -526 -165 -334 -643 -479 -865 -263 -139 135 -98 324 94
430 48 26 64 30 136 30 95 0 119 -12 170 -89 55 -84 134 -112 235 -82 192 56
222 223 67 375 -191 188 -534 198 -831 24 -106 -61 -240 -193 -290 -283 -62
-114 -81 -187 -76 -298 6 -113 25 -174 80 -257 99 -147 269 -250 473 -286 107
-18 330 -6 435 24 609 174 979 727 789 1182 -111 268 -348 449 -699 532 -60
14 -117 18 -285 18 -192 -1 -220 -3 -320 -27 -149 -36 -220 -60 -354 -124
-208 -99 -370 -212 -516 -358 -188 -189 -310 -394 -371 -627 -25 -93 -28 -120
-28 -264 1 -151 3 -166 33 -265 68 -221 220 -436 412 -582 37 -28 66 -55 63
-59 -2 -4 -37 -10 -76 -14 -391 -36 -784 -133 -1124 -276 -78 -33 -150 -67
-160 -75 -17 -14 -11 -14 69 -9 146 11 720 8 892 -4 88 -7 282 -23 431 -36
150 -14 345 -29 435 -35 867 -53 1536 106 1984 470 84 68 209 198 253 262 47
68 134 237 190 368 148 347 256 475 494 584 74 35 196 71 205 62 3 -3 -2 -36
-11 -74 -10 -37 -18 -75 -19 -83 -2 -7 -5 -18 -8 -24 -4 -5 -19 -48 -34 -95
-15 -47 -44 -121 -66 -165 -21 -45 -39 -84 -39 -87 0 -4 -13 -27 -30 -51 -16
-25 -30 -50 -30 -55 0 -15 -152 -239 -174 -257 -7 -5 -17 -17 -22 -27 -41 -74
-317 -346 -454 -448 -18 -14 -45 -34 -59 -45 -51 -41 -131 -95 -140 -95 -5 0
-11 -3 -13 -7 -5 -12 -83 -63 -96 -63 -7 0 -12 -3 -12 -8 0 -4 -9 -12 -20 -17
-45 -23 -206 -107 -220 -115 -70 -40 -430 -176 -557 -211 -18 -5 -50 -14 -70
-20 -21 -6 -67 -16 -103 -24 -36 -7 -101 -20 -144 -29 -44 -9 -109 -19 -145
-22 -36 -3 -82 -7 -101 -10 -79 -10 -451 -12 -525 -3 -44 5 -103 11 -131 14
-28 2 -71 9 -95 14 -53 12 -85 14 -75 3 4 -4 12 -8 17 -8 5 -1 10 -2 12 -4 3
-3 25 -8 122 -30 50 -12 104 -25 120 -30 17 -5 46 -10 65 -11 19 -2 39 -5 44
-7 5 -3 30 -7 55 -8 25 -2 70 -8 99 -12 84 -14 445 -11 567 5 133 17 163 21
195 27 14 3 54 10 90 16 70 12 125 25 178 42 19 5 44 11 55 13 48 6 381 126
462 165 34 16 69 30 77 30 9 0 18 7 21 14 3 8 22 18 42 22 19 3 37 10 40 14 2
4 38 25 80 46 41 21 75 42 75 46 0 5 5 8 12 8 6 0 37 17 67 37 31 20 74 48 96
62 22 14 45 30 50 36 6 6 33 26 60 45 97 68 226 181 350 310 83 85 235 267
235 280 0 5 7 15 15 23 41 42 225 374 225 407 0 5 9 25 19 44 11 19 17 36 15
39 -3 3 -1 13 4 24 33 62 55 161 99 428 10 57 8 246 -2 320 -12 88 -14 100
-20 125 -3 14 -7 41 -9 60 -2 19 -10 50 -20 68 -9 17 -14 32 -12 32 3 0 -4 19
-14 43 -11 23 -20 51 -20 63 0 18 135 222 207 312 14 17 22 32 17 31 -7 0
-135 -148 -226 -259 -19 -25 -21 -23 -83 97 -16 32 -34 61 -38 64 -5 4 -14 15
-20 27 -57 100 -304 365 -371 399 -17 8 -42 25 -56 37 -39 35 -121 90 -162
109 -20 10 -40 22 -43 27 -4 6 -10 8 -15 5 -4 -3 -13 2 -20 10 -7 8 -19 15
-26 15 -8 0 -22 4 -32 10 -28 15 -114 52 -167 70 -27 10 -59 21 -69 26 -13 5
-17 4 -12 -4z m857 -883 c40 -110 55 -156 68 -203 10 -37 8 -41 -36 -97 -25
-33 -49 -59 -53 -59 -4 0 -22 3 -39 6 l-32 7 6 66 c4 36 16 131 26 210 10 79
19 148 19 154 0 20 10 -1 41 -84z m104 -383 l6 -57 -31 22 c-16 13 -30 24 -30
26 0 6 45 72 47 69 1 -1 5 -28 8 -60z"/>
<path d="M5038 4294 c-34 -18 -39 -67 -9 -83 25 -14 78 4 92 30 11 22 -2 53
-27 63 -21 8 -25 8 -56 -10z"/>
<path d="M5606 4219 c-31 -24 -33 -40 -8 -62 26 -24 59 -21 87 7 54 54 -17
104 -79 55z"/>
<path d="M580 1866 c0 -2 8 -10 18 -17 15 -13 16 -12 3 4 -13 16 -21 21 -21
13z"/>
</g>
</svg>
